<svg width="20" height="20" viewBox="0 0 20 20" fill="none" xmlns="http://www.w3.org/2000/svg">
<g clip-path="url(#clip0_4101_10670)">
<path fill-rule="evenodd" clip-rule="evenodd" d="M5.96042 1.07741C6.1167 0.921126 6.32866 0.833328 6.54967 0.833328H13.4497C13.6707 0.833328 13.8826 0.921126 14.0389 1.07741L18.9223 5.96074C19.0785 6.11702 19.1663 6.32898 19.1663 6.55V13.45C19.1663 13.671 19.0785 13.883 18.9223 14.0393L14.0389 18.9226C13.8826 19.0789 13.6707 19.1667 13.4497 19.1667H6.54967C6.32866 19.1667 6.1167 19.0789 5.96042 18.9226L1.07709 14.0393C0.920805 13.883 0.833008 13.671 0.833008 13.45V6.55C0.833008 6.32898 0.920805 6.11702 1.07709 5.96074L5.96042 1.07741ZM6.89485 2.49999L2.49967 6.89517V13.1048L6.89485 17.5H13.1045L17.4997 13.1048V6.89517L13.1045 2.49999H6.89485Z" fill="#FF8D8D"/>
<path fill-rule="evenodd" clip-rule="evenodd" d="M10.0003 5.83333C10.4606 5.83333 10.8337 6.20642 10.8337 6.66666V9.99999C10.8337 10.4602 10.4606 10.8333 10.0003 10.8333C9.54009 10.8333 9.16699 10.4602 9.16699 9.99999V6.66666C9.16699 6.20642 9.54009 5.83333 10.0003 5.83333Z" fill="#FF8D8D"/>
<path fill-rule="evenodd" clip-rule="evenodd" d="M9.16699 13.3333C9.16699 12.8731 9.54009 12.5 10.0003 12.5H10.0087C10.4689 12.5 10.842 12.8731 10.842 13.3333C10.842 13.7936 10.4689 14.1667 10.0087 14.1667H10.0003C9.54009 14.1667 9.16699 13.7936 9.16699 13.3333Z" fill="#FF8D8D"/>
</g>
<defs>
<clipPath id="clip0_4101_10670">
<rect width="20" height="20" fill="white"/>
</clipPath>
</defs>
</svg>
